<svg width="241" height="49" viewBox="0 0 241 49" fill="none" xmlns="http://www.w3.org/2000/svg">
<path d="M14.0312 48H4.125L4.1875 40.6875H14.0312C16.4896 40.6875 18.5625 40.1354 20.25 39.0312C21.9375 37.9062 23.2083 36.2708 24.0625 34.125C24.9375 31.9792 25.375 29.3854 25.375 26.3438V24.125C25.375 21.7917 25.125 19.7396 24.625 17.9688C24.1458 16.1979 23.4271 14.7083 22.4688 13.5C21.5104 12.2917 20.3333 11.3854 18.9375 10.7812C17.5417 10.1562 15.9375 9.84375 14.125 9.84375H3.9375V2.5H14.125C17.1667 2.5 19.9479 3.02083 22.4688 4.0625C25.0104 5.08333 27.2083 6.55208 29.0625 8.46875C30.9167 10.3854 32.3438 12.6771 33.3438 15.3438C34.3646 17.9896 34.875 20.9375 34.875 24.1875V26.3438C34.875 29.5729 34.3646 32.5208 33.3438 35.1875C32.3438 37.8542 30.9167 40.1458 29.0625 42.0625C27.2292 43.9583 25.0312 45.4271 22.4688 46.4688C19.9271 47.4896 17.1146 48 14.0312 48ZM9.4375 2.5V48H0.0625V2.5H9.4375ZM59.375 40.375V25.3125C59.375 24.2292 59.1979 23.3021 58.8438 22.5312C58.4896 21.7396 57.9375 21.125 57.1875 20.6875C56.4583 20.25 55.5104 20.0312 54.3438 20.0312C53.3438 20.0312 52.4792 20.2083 51.75 20.5625C51.0208 20.8958 50.4583 21.3854 50.0625 22.0312C49.6667 22.6562 49.4688 23.3958 49.4688 24.25H40.4688C40.4688 22.8125 40.8021 21.4479 41.4688 20.1562C42.1354 18.8646 43.1042 17.7292 44.375 16.75C45.6458 15.75 47.1562 14.9688 48.9062 14.4062C50.6771 13.8438 52.6562 13.5625 54.8438 13.5625C57.4688 13.5625 59.8021 14 61.8438 14.875C63.8854 15.75 65.4896 17.0625 66.6562 18.8125C67.8438 20.5625 68.4375 22.75 68.4375 25.375V39.8438C68.4375 41.6979 68.5521 43.2188 68.7812 44.4062C69.0104 45.5729 69.3438 46.5938 69.7812 47.4688V48H60.6875C60.25 47.0833 59.9167 45.9375 59.6875 44.5625C59.4792 43.1667 59.375 41.7708 59.375 40.375ZM60.5625 27.4062L60.625 32.5H55.5938C54.4062 32.5 53.375 32.6354 52.5 32.9062C51.625 33.1771 50.9062 33.5625 50.3438 34.0625C49.7812 34.5417 49.3646 35.1042 49.0938 35.75C48.8438 36.3958 48.7188 37.1042 48.7188 37.875C48.7188 38.6458 48.8958 39.3438 49.25 39.9688C49.6042 40.5729 50.1146 41.0521 50.7812 41.4062C51.4479 41.7396 52.2292 41.9062 53.125 41.9062C54.4792 41.9062 55.6562 41.6354 56.6562 41.0938C57.6562 40.5521 58.4271 39.8854 58.9688 39.0938C59.5312 38.3021 59.8229 37.5521 59.8438 36.8438L62.2188 40.6562C61.8854 41.5104 61.4271 42.3958 60.8438 43.3125C60.2812 44.2292 59.5625 45.0938 58.6875 45.9062C57.8125 46.6979 56.7604 47.3542 55.5312 47.875C54.3021 48.375 52.8438 48.625 51.1562 48.625C49.0104 48.625 47.0625 48.1979 45.3125 47.3438C43.5833 46.4688 42.2083 45.2708 41.1875 43.75C40.1875 42.2083 39.6875 40.4583 39.6875 38.5C39.6875 36.7292 40.0208 35.1562 40.6875 33.7812C41.3542 32.4062 42.3333 31.25 43.625 30.3125C44.9375 29.3542 46.5729 28.6354 48.5312 28.1562C50.4896 27.6562 52.7604 27.4062 55.3438 27.4062H60.5625ZM93.6562 38.6562C93.6562 38.0104 93.4688 37.4271 93.0938 36.9062C92.7188 36.3854 92.0208 35.9062 91 35.4688C90 35.0104 88.5521 34.5938 86.6562 34.2188C84.9479 33.8438 83.3542 33.375 81.875 32.8125C80.4167 32.2292 79.1458 31.5312 78.0625 30.7188C77 29.9062 76.1667 28.9479 75.5625 27.8438C74.9583 26.7188 74.6562 25.4375 74.6562 24C74.6562 22.5833 74.9583 21.25 75.5625 20C76.1875 18.75 77.0729 17.6458 78.2188 16.6875C79.3854 15.7083 80.8021 14.9479 82.4688 14.4062C84.1562 13.8438 86.0521 13.5625 88.1562 13.5625C91.0938 13.5625 93.6146 14.0312 95.7188 14.9688C97.8438 15.9062 99.4688 17.1979 100.594 18.8438C101.74 20.4688 102.312 22.3229 102.312 24.4062H93.3125C93.3125 23.5312 93.125 22.75 92.75 22.0625C92.3958 21.3542 91.8333 20.8021 91.0625 20.4062C90.3125 19.9896 89.3333 19.7812 88.125 19.7812C87.125 19.7812 86.2604 19.9583 85.5312 20.3125C84.8021 20.6458 84.2396 21.1042 83.8438 21.6875C83.4688 22.25 83.2812 22.875 83.2812 23.5625C83.2812 24.0833 83.3854 24.5521 83.5938 24.9688C83.8229 25.3646 84.1875 25.7292 84.6875 26.0625C85.1875 26.3958 85.8333 26.7083 86.625 27C87.4375 27.2708 88.4375 27.5208 89.625 27.75C92.0625 28.25 94.2396 28.9062 96.1562 29.7188C98.0729 30.5104 99.5938 31.5938 100.719 32.9688C101.844 34.3229 102.406 36.1042 102.406 38.3125C102.406 39.8125 102.073 41.1875 101.406 42.4375C100.74 43.6875 99.7812 44.7812 98.5312 45.7188C97.2812 46.6354 95.7812 47.3542 94.0312 47.875C92.3021 48.375 90.3542 48.625 88.1875 48.625C85.0417 48.625 82.375 48.0625 80.1875 46.9375C78.0208 45.8125 76.375 44.3854 75.25 42.6562C74.1458 40.9062 73.5938 39.1146 73.5938 37.2812H82.125C82.1667 38.5104 82.4792 39.5 83.0625 40.25C83.6667 41 84.4271 41.5417 85.3438 41.875C86.2812 42.2083 87.2917 42.375 88.375 42.375C89.5417 42.375 90.5104 42.2188 91.2812 41.9062C92.0521 41.5729 92.6354 41.1354 93.0312 40.5938C93.4479 40.0312 93.6562 39.3854 93.6562 38.6562ZM117.031 0V48H108.031V0H117.031ZM115.75 29.9062H113.281C113.302 27.5521 113.615 25.3854 114.219 23.4062C114.823 21.4062 115.688 19.6771 116.812 18.2188C117.938 16.7396 119.281 15.5938 120.844 14.7812C122.427 13.9688 124.177 13.5625 126.094 13.5625C127.76 13.5625 129.271 13.8021 130.625 14.2812C132 14.7396 133.177 15.4896 134.156 16.5312C135.156 17.5521 135.927 18.8958 136.469 20.5625C137.01 22.2292 137.281 24.25 137.281 26.625V48H128.219V26.5625C128.219 25.0625 128 23.8854 127.562 23.0312C127.146 22.1562 126.531 21.5417 125.719 21.1875C124.927 20.8125 123.948 20.625 122.781 20.625C121.49 20.625 120.385 20.8646 119.469 21.3438C118.573 21.8229 117.854 22.4896 117.312 23.3438C116.771 24.1771 116.375 25.1562 116.125 26.2812C115.875 27.4062 115.75 28.6146 115.75 29.9062ZM180.75 24.2188V42.25C180.042 43.1042 178.948 44.0312 177.469 45.0312C175.99 46.0104 174.083 46.8542 171.75 47.5625C169.417 48.2708 166.594 48.625 163.281 48.625C160.344 48.625 157.667 48.1458 155.25 47.1875C152.833 46.2083 150.75 44.7812 149 42.9062C147.271 41.0312 145.938 38.7396 145 36.0312C144.062 33.3021 143.594 30.1875 143.594 26.6875V23.8438C143.594 20.3438 144.042 17.2292 144.938 14.5C145.854 11.7708 147.156 9.46875 148.844 7.59375C150.531 5.71875 152.542 4.29167 154.875 3.3125C157.208 2.33333 159.802 1.84375 162.656 1.84375C166.615 1.84375 169.865 2.48958 172.406 3.78125C174.948 5.05208 176.885 6.82292 178.219 9.09375C179.573 11.3438 180.406 13.9271 180.719 16.8438H171.625C171.396 15.3021 170.958 13.9583 170.312 12.8125C169.667 11.6667 168.74 10.7708 167.531 10.125C166.344 9.47917 164.802 9.15625 162.906 9.15625C161.344 9.15625 159.948 9.47917 158.719 10.125C157.51 10.75 156.49 11.6771 155.656 12.9062C154.823 14.1354 154.188 15.6562 153.75 17.4688C153.312 19.2812 153.094 21.3854 153.094 23.7812V26.6875C153.094 29.0625 153.323 31.1667 153.781 33C154.24 34.8125 154.917 36.3438 155.812 37.5938C156.729 38.8229 157.854 39.75 159.188 40.375C160.521 41 162.073 41.3125 163.844 41.3125C165.323 41.3125 166.552 41.1875 167.531 40.9375C168.531 40.6875 169.333 40.3854 169.938 40.0312C170.562 39.6562 171.042 39.3021 171.375 38.9688V30.9062H162.812V24.2188H180.75ZM225.688 24.1875V26.3438C225.688 29.8021 225.219 32.9062 224.281 35.6562C223.344 38.4062 222.021 40.75 220.312 42.6875C218.604 44.6042 216.562 46.0729 214.188 47.0938C211.833 48.1146 209.219 48.625 206.344 48.625C203.49 48.625 200.875 48.1146 198.5 47.0938C196.146 46.0729 194.104 44.6042 192.375 42.6875C190.646 40.75 189.302 38.4062 188.344 35.6562C187.406 32.9062 186.938 29.8021 186.938 26.3438V24.1875C186.938 20.7083 187.406 17.6042 188.344 14.875C189.281 12.125 190.604 9.78125 192.312 7.84375C194.042 5.90625 196.083 4.42708 198.438 3.40625C200.812 2.38542 203.427 1.875 206.281 1.875C209.156 1.875 211.771 2.38542 214.125 3.40625C216.5 4.42708 218.542 5.90625 220.25 7.84375C221.979 9.78125 223.312 12.125 224.25 14.875C225.208 17.6042 225.688 20.7083 225.688 24.1875ZM216.219 26.3438V24.125C216.219 21.7083 216 19.5833 215.562 17.75C215.125 15.9167 214.479 14.375 213.625 13.125C212.771 11.875 211.729 10.9375 210.5 10.3125C209.271 9.66667 207.865 9.34375 206.281 9.34375C204.698 9.34375 203.292 9.66667 202.062 10.3125C200.854 10.9375 199.823 11.875 198.969 13.125C198.135 14.375 197.5 15.9167 197.062 17.75C196.625 19.5833 196.406 21.7083 196.406 24.125V26.3438C196.406 28.7396 196.625 30.8646 197.062 32.7188C197.5 34.5521 198.146 36.1042 199 37.375C199.854 38.625 200.896 39.5729 202.125 40.2188C203.354 40.8646 204.76 41.1875 206.344 41.1875C207.927 41.1875 209.333 40.8646 210.562 40.2188C211.792 39.5729 212.823 38.625 213.656 37.375C214.49 36.1042 215.125 34.5521 215.562 32.7188C216 30.8646 216.219 28.7396 216.219 26.3438Z" fill="white"/>
<path d="M232.875 44.9375C232.875 43.9583 233.177 43.1354 233.781 42.4688C234.406 41.7812 235.302 41.4375 236.469 41.4375C237.635 41.4375 238.521 41.7812 239.125 42.4688C239.75 43.1354 240.062 43.9583 240.062 44.9375C240.062 45.8958 239.75 46.7083 239.125 47.375C238.521 48.0417 237.635 48.375 236.469 48.375C235.302 48.375 234.406 48.0417 233.781 47.375C233.177 46.7083 232.875 45.8958 232.875 44.9375Z" fill="#F500DD"/>
</svg>
